<?xml version="1.0" encoding="UTF-8" standalone="no"?>
<!DOCTYPE svg PUBLIC "-//W3C//DTD SVG 1.1//EN" "http://www.w3.org/Graphics/SVG/1.1/DTD/svg11.dtd">
<svg version="1.1" xmlns="http://www.w3.org/2000/svg" xmlns:xlink="http://www.w3.org/1999/xlink" preserveAspectRatio="xMidYMid meet" viewBox="0 0 640 640" width="300" height="300"><defs><path d="M137.78 208.58C145.76 220.41 149.41 234.67 149.41 234.67C153.29 251.38 184.35 385.16 188.24 401.89C188.24 401.89 188.15 422.56 180.2 435.3C174.23 444.91 163.3 449.62 158.96 451.17C157.8 451.6 157.11 451.78 157.11 451.78C157.11 451.78 137.58 454.63 124.95 447.19C112.06 439.65 106.03 421.81 106.03 421.81C102.63 406.6 75.4 284.97 72.02 269.76C72.02 269.76 70.95 261.02 73.1 255.37C76.42 246.61 83.69 244.39 90.69 250.9C96.15 255.98 100.3 265.81 100.3 265.81C103.47 280.15 128.91 394.86 132.09 409.19C132.09 409.19 133.97 417.82 138.79 421.5C146.83 427.61 156.22 422.74 158.95 415.41C160.71 410.69 158.18 403.83 158.18 403.83C154.28 387.14 123.07 253.58 119.17 236.89C119.17 236.89 112.97 219.08 101.42 212.01C78.51 197.93 59.99 211.34 53.37 220.48C46.96 229.34 46.4 241.9 46.4 241.9C46.4 241.9 45.98 249.33 47.67 256.9C58.29 304.98 98.73 478.09 98.73 478.09C98.73 478.09 101.86 491.32 108.73 500.21C118.28 512.61 135.22 520.44 148.91 522.07C161.35 523.58 180.71 519.43 191.67 512.17C206.01 502.63 215.18 487.43 217.77 477.53C220.87 465.68 220.41 451.99 220.41 451.99C215.63 430.65 192.02 320.49 187.25 299.16C187.25 299.16 199.74 276.78 203.95 282.41C207.94 287.8 212.98 297.39 212.98 297.39C217.58 317.64 240.2 418.46 244.78 438.71C244.78 438.71 248.45 459.03 245.59 477.45C242.05 500.27 230.13 519.26 209.2 533.99C190.97 546.83 169.05 552.35 142.7 547.99C115.46 543.45 97.44 531.52 83.65 512.34C73.79 498.63 69.5 481.94 69.5 481.94C64.5 460.16 24.41 285.97 19.41 264.19C19.41 264.19 15.15 245.9 18.12 230.62C21.4 213.7 38.26 195.16 48.7 188.25C65.43 177.11 77.31 176.08 96.02 180.39C112.82 184.3 126.05 191.24 137.78 208.58Z" id="dVWsdgUnT"></path><path d="M622.94 389.59C618.21 396.67 615.54 400.44 614.93 400.9C585.33 423.03 526.34 400.8 502.05 339.98C486.93 298.84 499.44 281.06 522.31 279.17C558.9 276.13 563.85 314.57 551.11 349.19C538.36 383.8 511.4 389.59 489.54 397.27C467.7 404.96 458.11 382.54 449.49 349.19C440.87 315.85 429.84 279.11 400.79 285.73C371.74 292.35 380.12 364.74 378.65 385.73C377.18 406.72 371.83 273.08 325.23 269.54C278.64 266 307.15 384.38 303.82 393.46C300.5 402.54 285.21 248.49 225.19 242.08C213.34 241.39 202.95 246.4 198.77 255.53C194.54 263.65 195.39 279.47 201.32 303.01" id="g1cDi3GLPn"></path></defs><g><g><g><use xlink:href="#dVWsdgUnT" opacity="1" fill="#006df0" fill-opacity="1"></use><g><use xlink:href="#dVWsdgUnT" opacity="1" fill-opacity="0" stroke="#000000" stroke-width="1" stroke-opacity="0"></use></g></g><g><use xlink:href="#g1cDi3GLPn" opacity="1" fill="#000000" fill-opacity="0"></use><g><use xlink:href="#g1cDi3GLPn" opacity="1" fill-opacity="0" stroke="#006df0" stroke-width="25" stroke-opacity="1"></use></g></g></g></g></svg>