<?xml version="1.0" encoding="UTF-8" standalone="no"?>
<!DOCTYPE svg PUBLIC "-//W3C//DTD SVG 1.1//EN" "http://www.w3.org/Graphics/SVG/1.1/DTD/svg11.dtd">
<svg version="1.1" xmlns="http://www.w3.org/2000/svg" xmlns:xlink="http://www.w3.org/1999/xlink" preserveAspectRatio="xMidYMid meet" viewBox="0 0 640 640" width="640" height="640"><defs><path d="M361.37 421.83C365.2 411.47 366.02 401.99 360.38 389.78C356.53 381.46 349.73 374.64 349.73 374.64C341.62 366.86 276.69 304.59 268.57 296.8C268.57 296.8 256.78 289.81 246.66 289.74C239.04 289.68 232.42 293.95 229.97 295.75C229.31 296.23 228.96 296.54 228.96 296.54C228.96 296.54 220.29 306.07 219.97 315.39C219.61 324.89 227.59 334.21 227.59 334.21C235.02 341.22 294.42 397.29 301.85 404.29C301.85 404.29 306.44 407.84 310.43 408.61C316.61 409.81 320.5 406.66 319.32 400.68C318.4 396.01 314.3 390.43 314.3 390.43C307.28 383.84 251.18 331.09 244.17 324.5C244.17 324.5 239.94 320.55 239.58 316.7C239 310.3 245.16 306.91 250.32 307.94C253.64 308.6 256.63 312.3 256.63 312.3C264.72 320.08 329.47 382.36 337.56 390.14C337.56 390.14 345.46 399.54 345.32 408.16C345.07 425.27 330.76 430.66 323.17 431.1C315.82 431.53 308.47 427.55 308.47 427.55C308.47 427.55 304.09 425.25 300.39 421.76C276.86 399.67 192.93 318.96 192.93 318.96C192.93 318.96 186.53 312.77 183.95 306.05C180.34 296.69 181.99 284.92 186 277C189.63 269.8 198.97 260.81 207.05 257.39C217.65 252.93 229.61 253.18 236.18 255.16C244.04 257.53 251.66 262.44 251.66 262.44C262.08 272.28 345.44 350.95 355.86 360.78C355.86 360.78 359.55 364.47 363.31 365.05C369.07 365.96 373.36 360.6 371.67 356.42C370.04 352.44 366.64 347.49 366.64 347.49C356.78 338.12 277.88 263.22 268.01 253.86C268.01 253.86 257.77 244.97 246.26 240.23C231.99 234.36 216.89 234.3 200.96 240.53C187.08 245.96 176.03 255.86 169.01 271.51C161.77 287.7 162.06 301.45 168 315.4C172.25 325.37 180.2 333.36 180.2 333.36C190.79 343.47 275.46 424.36 286.05 434.47C286.05 434.47 294.92 442.99 304.69 446.6C315.5 450.6 332.13 447.85 339.83 444.59C352.2 439.39 357.07 433.36 361.37 421.83Z" id="b1nXQdb7e8"></path><path d="M578.34 348.84C561.64 362.1 546.36 361.4 532.48 346.74C511.67 324.76 510.68 291.26 523.56 292.3C536.45 293.35 539.42 305.91 532.48 324.76C525.54 343.6 517.62 348.84 505.72 353.02C493.83 357.21 482.92 349.88 483.92 326.85C484.91 303.82 474.99 291.26 463.1 292.3C455.17 293 447.9 306.74 441.29 333.52C437.99 306.74 431.71 293 422.46 292.3C413.21 291.6 407.26 305.34 404.62 333.52C400 299.76 390.08 286.02 374.89 292.3C359.69 298.58 355.9 320.92 363.53 359.3" id="e5i9SfgGZ"></path></defs><g><g><g><use xlink:href="#b1nXQdb7e8" opacity="1" fill="#006df0" fill-opacity="1"></use><g><use xlink:href="#b1nXQdb7e8" opacity="1" fill-opacity="0" stroke="#000000" stroke-width="1" stroke-opacity="0"></use></g></g><g><g><use xlink:href="#e5i9SfgGZ" opacity="1" fill-opacity="0" stroke="#006df0" stroke-width="12" stroke-opacity="1"></use></g></g></g></g></svg>